<?xml version="1.0" encoding="UTF-8"?>
<svg id="Camada_1" data-name="Camada 1" xmlns="http://www.w3.org/2000/svg" viewBox="0 0 1303.91 166.79">
  <defs>
    <style>
      .cls-1 {
        fill: #63c0de;
      }

      .cls-2 {
        fill: #056fb6;
      }

      .cls-3 {
        fill: #104588;
      }

      .cls-4 {
        fill: #c0c0bf;
      }
    </style>
  </defs>
  <g>
    <path class="cls-2" d="M133.07,102.57c-5.44,3.43-11.92,3.81-17.47,1.62l13.24-8.34,13.24-8.34,12.77-8.05c-.78-3.72-2.22-7.36-4.36-10.76-9.66-15.32-29.9-19.92-45.23-10.26-6.91,4.36-11.64,10.87-13.86,18.12-4.38-2.17-9.32-3.39-14.54-3.39-6.21,0-12.01,1.73-16.96,4.72v-33.46h-15.78v59.03h15.78v-.25c1.34-8.16,8.42-14.39,16.96-14.39,7.03,0,13.08,4.23,15.74,10.28.04.1.09.2.13.3.85,2.04,1.32,4.27,1.32,6.62,0,5.18-2.29,9.81-5.91,12.96h18.91c.47-1.09.88-2.22,1.23-3.36,9.88,4.85,21.96,4.61,31.95-1.68,9.19-5.79,14.51-15.39,15.23-25.45l-22.38,14.1ZM112.41,69.78c7.93-5,18.09-3.54,24.32,2.98l-30.24,19.06c-.88-1.84-1.93-3.57-3.12-5.2-.14-6.58,3.07-13.07,9.04-16.83Z"/>
    <rect class="cls-2" x="45.3" y="104.69" width="13.27" height="13.05" rx="6.52" ry="6.52"/>
  </g>
  <path class="cls-1" d="M175.91-2.83H13.9C6.22-2.83,0,3.39,0,11.06v147.23c0,3.13,2.53,5.66,5.66,5.66h16.8c2.74,0,5.02-1.94,5.55-4.52.2-.96.38-1.93.7-2.86l2.19-6.5h128.03l2.19,6.5c.31.93.5,1.9.7,2.86.53,2.58,2.81,4.52,5.55,4.52h16.8c3.13,0,5.66-2.53,5.66-5.66V11.06c0-7.67-6.22-13.9-13.9-13.9ZM168.34,116.25c0,7.67-6.22,13.89-13.89,13.89H35.36c-7.67,0-13.89-6.22-13.89-13.89V38.68h56.66v8.57c0,1.53.69,2.97,1.88,3.93l11.88,9.56c1.85,1.49,4.48,1.49,6.32,0l11.88-9.56c1.19-.96,1.88-2.4,1.88-3.93v-8.57h42.4c1.82,0,3.3-1.48,3.3-3.3s-1.48-3.3-3.3-3.3h-42.4v-10.21c0-1.28-1.03-2.31-2.31-2.31h-29.21c-1.28,0-2.31,1.03-2.31,2.31v10.21H21.47v-1.11c0-7.67,6.22-13.89,13.89-13.89h119.09c7.67,0,13.89,6.22,13.89,13.89v85.27ZM92.41,38.68h13.9v6.39c0,1.02-.46,1.98-1.25,2.61l-7.91,6.37c-1.23.99-2.98.99-4.21,0l-7.91-6.37c-.79-.64-1.25-1.6-1.25-2.61v-16.9c0-.85.69-1.54,1.54-1.54h19.45c.85,0,1.54.69,1.54,1.54v3.92h-13.9c-1.82,0-3.3,1.48-3.3,3.3s1.48,3.3,3.3,3.3Z"/>
  <path class="cls-3" d="M151.61,120.44H37.27c-2.12,0-3.84,1.72-3.84,3.84s1.72,3.84,3.84,3.84h114.34c2.12,0,3.84-1.72,3.84-3.84s-1.72-3.84-3.84-3.84Z"/>
  <g>
    <g>
      <path class="cls-4" d="M373.5,17.01c6.27,0,8.43,1.96,8.43,8.23v123.07c0,6.08-2.16,8.03-8.43,8.03h-21.36c-6.27,0-8.23-1.96-8.23-8.03v-28.02c0-14.11,2.94-31.16,8.62-51.34h-2.16c-.98,3.33-2.94,8.62-5.88,15.87-2.94,7.25-5.29,12.74-7.25,16.46l-10.97,22.14c-2.35,4.12-4.51,5.68-9.41,5.68h-13.13c-5.29,0-7.25-1.18-9.41-5.68l-11.56-22.14c-4.12-7.25-8.03-18.03-12.15-32.33h-1.96c5.29,21.36,8.04,38.61,8.04,51.54v27.83c0,6.08-2.16,8.03-8.43,8.03h-19.99c-6.27,0-8.43-1.96-8.43-8.03V25.24c0-6.27,2.16-8.23,8.43-8.23h18.42c6.86,0,8.62,1.18,11.56,6.07l32.33,63.49,32.33-63.3c2.55-5.29,4.51-6.27,10.97-6.27h19.6M373.5,9.01h-19.6c-8.19,0-13.8,1.76-18.14,10.71l-25.16,49.25-25.22-49.52c-.08-.16-.17-.33-.27-.49-4.52-7.54-9-9.96-18.42-9.96h-18.42c-13.58,0-16.43,8.83-16.43,16.23v123.07c0,7.31,2.85,16.03,16.43,16.03h19.99c13.58,0,16.43-8.72,16.43-16.03v-26.06l2.48,4.76c3.47,7.17,8.28,10.1,16.56,10.1h13.13c7.57,0,12.46-2.91,16.35-9.71.08-.14.15-.28.22-.42l2.47-4.98v26.32c0,10.49,5.61,16.03,16.23,16.03h21.36c13.58,0,16.43-8.72,16.43-16.03V25.24c0-7.4-2.85-16.23-16.43-16.23h0Z"/>
      <path class="cls-4" d="M473.24,17.2c5.68,0,8.43,1.57,10.19,6.47l45.27,124.64c1.96,5.29,0,8.03-5.68,8.03h-21.16c-10,0-13.13-1.96-14.7-8.23l-4.51-14.11h-42.33l-4.51,14.11c-2.16,6.27-4.9,8.23-14.31,8.23h-20.58c-5.49,0-7.25-2.74-5.29-8.03l45.07-124.24c1.76-5.49,4.12-6.86,10.19-6.86h22.34M449.33,103.23h24.5l-7.25-22.93c-2.35-7.84-3.92-18.23-4.12-23.52l-.2-3.92h-1.96c.2,9.41-1.18,18.42-3.72,27.24l-7.25,23.12M473.24,9.2h-22.34c-6.8,0-14.22,1.46-17.76,12.26l-45.02,124.09c-2.43,6.58-.88,10.92.85,13.41,1.71,2.46,5.17,5.38,11.95,5.38h20.58c10.32,0,17.98-2.32,21.87-13.63.02-.05.04-.11.05-.17l2.73-8.54h30.64l2.66,8.32c3.21,12.31,12.65,14.02,22.39,14.02h21.16c7,0,10.55-2.98,12.29-5.49,1.74-2.49,3.3-6.83.89-13.32l-45.25-124.59c-3.79-10.52-11.92-11.74-17.71-11.74h0ZM460.22,95.23l1.34-4.26,1.35,4.26h-2.68Z"/>
      <path class="cls-4" d="M645.88,17.2c6.08,0,7.84,3.33,4.7,8.62l-35.67,56.83c4.51,3.33,8.62,8.23,11.95,15.09l25.87,48.99c2.94,5.29,1.18,9.6-5.1,9.6h-21.16c-10.78,0-14.31-1.37-17.44-8.23l-17.05-35.08c-3.33-7.05-6.27-9.8-13.33-9.8h-3.53v44.88c0,6.07-1.96,8.23-8.23,8.23h-22.14c-6.27,0-8.43-2.16-8.43-8.23V25.43c0-6.07,2.16-8.23,8.43-8.23h22.14c6.27,0,8.23,2.16,8.23,8.23v43.51h4.31l28.22-44.48c1.96-3.14,3.92-5.1,5.68-6.08,1.76-.78,5.09-1.18,9.99-1.18h22.54M645.88,9.2h-22.54c-6.26,0-10.34.58-13.24,1.87-.22.1-.43.2-.64.32-3.11,1.73-5.99,4.69-8.57,8.8l-17.76,28v-22.76c0-10.62-5.61-16.23-16.23-16.23h-22.14c-10.59,0-16.43,5.76-16.43,16.23v122.68c0,10.47,5.83,16.23,16.43,16.23h22.14c10.62,0,16.23-5.61,16.23-16.23v-34.76c.46.74.98,1.74,1.62,3.1.01.03.03.05.04.08l17.01,35c5.47,11.87,14.04,12.81,24.68,12.81h21.16c5.68,0,10.32-2.36,12.75-6.49,2.5-4.24,2.27-9.67-.61-14.92l-25.77-48.81c-2.44-5-5.37-9.32-8.74-12.91l32.09-51.14c.04-.06.07-.12.11-.17,4.14-6.99,2.49-12.02,1.14-14.4-1.34-2.35-4.78-6.3-12.72-6.3h0Z"/>
      <path class="cls-4" d="M755.23,17.2c6.27,0,8.43,2.16,8.43,8.23v17.64c0,6.27-2.16,8.43-8.43,8.43h-51.74v17.44h41.35c6.27,0,8.43,2.16,8.43,8.23v17.64c0,6.27-2.16,8.43-8.43,8.43h-41.35v18.81h53.5c6.08,0,8.23,1.96,8.23,8.23v17.83c0,6.07-2.16,8.23-8.23,8.23h-83.88c-6.27,0-8.43-2.16-8.43-8.23V25.43c0-6.07,2.16-8.23,8.43-8.23h82.11M755.23,9.2h-82.11c-10.59,0-16.43,5.76-16.43,16.23v122.68c0,10.47,5.83,16.23,16.43,16.23h83.88c10.47,0,16.23-5.76,16.23-16.23v-17.83c0-10.62-5.61-16.23-16.23-16.23h-45.5v-2.81h33.35c10.75,0,16.43-5.68,16.43-16.43v-17.64c0-10.47-5.83-16.23-16.43-16.23h-33.35v-1.44h43.74c10.75,0,16.43-5.68,16.43-16.43v-17.64c0-10.47-5.83-16.23-16.43-16.23h0Z"/>
      <path class="cls-4" d="M844.19,17.2c29.98,0,48.8,17.25,48.8,47.23,0,19.01-7.05,32.53-21.16,40.37,2.16,2.55,3.92,5.49,5.29,8.43l17.64,33.51c2.94,5.29,1.18,9.6-5.09,9.6h-21.17c-10.19,0-14.89-2.35-18.03-9.41l-12.54-26.85c-3.72-7.05-7.05-9.99-14.7-9.99h-4.51v38.02c0,6.07-1.96,8.23-8.23,8.23h-22.14c-6.27,0-8.43-2.16-8.43-8.23V25.43c0-6.07,2.16-8.23,8.43-8.23h55.85M818.72,77.37h21.16c8.04,0,12.93-5.09,12.93-13.13s-4.51-12.74-12.93-12.74h-21.16v25.87M844.19,9.2h-55.85c-10.59,0-16.43,5.76-16.43,16.23v122.68c0,10.47,5.83,16.23,16.43,16.23h22.14c10.62,0,16.23-5.61,16.23-16.23v-29.55c1.32.6,2.38,1.97,4.04,5.1l12.43,26.6c5.55,12.41,15.91,14.08,25.31,14.08h21.17c5.68,0,10.32-2.36,12.75-6.49,2.49-4.24,2.27-9.67-.61-14.91l-17.51-33.28c-.44-.93-.89-1.83-1.37-2.7,4.95-3.99,8.93-8.83,11.87-14.45,4.12-7.86,6.2-17.31,6.2-28.08,0-16.84-5.41-30.89-15.63-40.65-10-9.54-24.24-14.58-41.16-14.58h0ZM826.72,59.5h13.16c3.78,0,4.93,1.11,4.93,4.74,0,4.26-1.97,5.13-4.93,5.13h-13.16v-9.87h0Z"/>
    </g>
    <g>
      <path class="cls-4" d="M958.78,17.82c6.27,0,8.23,2.16,8.23,8.23v96.61h47.23c6.08,0,8.23,1.96,8.23,8.23v17.83c0,6.08-2.16,8.23-8.23,8.23h-77.6c-6.27,0-8.43-2.16-8.43-8.23V26.05c0-6.07,2.16-8.23,8.43-8.23h22.14M958.78,9.82h-22.14c-10.59,0-16.43,5.76-16.43,16.23v122.68c0,10.47,5.83,16.23,16.43,16.23h77.6c10.47,0,16.23-5.76,16.23-16.23v-17.83c0-10.62-5.61-16.23-16.23-16.23h-39.23V26.05c0-10.62-5.61-16.23-16.23-16.23h0Z"/>
      <path class="cls-4" d="M1106.14,17.82c5.68,0,8.43,1.57,10.19,6.47l45.27,124.64c1.96,5.29,0,8.03-5.68,8.03h-21.17c-9.99,0-13.13-1.96-14.7-8.23l-4.51-14.11h-42.33l-4.51,14.11c-2.16,6.27-4.9,8.23-14.31,8.23h-20.58c-5.49,0-7.25-2.74-5.29-8.03l45.07-124.24c1.76-5.49,4.12-6.86,10.19-6.86h22.34M1082.23,103.85h24.5l-7.25-22.93c-2.35-7.84-3.92-18.23-4.12-23.52l-.2-3.92h-1.96c.2,9.41-1.18,18.42-3.72,27.24l-7.25,23.12M1106.14,9.82h-22.34c-6.8,0-14.22,1.46-17.76,12.26l-45.02,124.1c-2.43,6.58-.88,10.92.85,13.4,1.71,2.46,5.17,5.38,11.95,5.38h20.58c10.32,0,17.98-2.32,21.87-13.63.02-.06.04-.11.05-.17l2.73-8.54h30.64l2.66,8.32c3.21,12.31,12.65,14.02,22.39,14.02h21.17c7,0,10.55-2.98,12.29-5.49,1.73-2.49,3.29-6.82.9-13.3l-45.26-124.62c-3.79-10.52-11.92-11.74-17.71-11.74h0ZM1093.12,95.85l1.34-4.26,1.35,4.26h-2.68Z"/>
      <path class="cls-4" d="M1235.08,17.62c27.24,0,43.31,13.52,43.31,37.23,0,12.74-4.7,22.34-14.11,28.81v.78c13.13,5.68,19.79,17.05,19.79,33.71,0,12.35-4.51,21.75-13.33,28.61-9.01,6.86-20.58,10.19-34.88,10.19h-58.2c-6.27,0-8.43-2.16-8.43-8.23V26.05c0-6.27,2.16-8.43,8.43-8.43h57.42M1208.04,70.73h19.01c8.03,0,11.95-3.53,11.95-10.58s-3.92-10.97-11.95-10.97h-19.01v21.56M1208.04,125.21h22.73c8.43,0,12.54-3.92,12.54-11.56s-4.12-11.37-12.54-11.37h-22.73v22.93M1235.08,9.62h-57.42c-10.75,0-16.43,5.68-16.43,16.43v122.68c0,10.47,5.83,16.23,16.43,16.23h58.2c16.05,0,29.42-3.98,39.73-11.82.02-.02.04-.03.07-.05,10.89-8.47,16.41-20.22,16.41-34.93,0-18.08-6.93-28.88-15-35.32,6.19-7.36,9.32-16.72,9.32-27.98,0-14.01-4.92-25.63-14.24-33.59-8.91-7.62-21.73-11.64-37.07-11.64h0ZM1216.04,57.17h11.01c2.35,0,3.36.46,3.55.64.08.07.4.72.4,2.34,0,1.5-.3,1.98-.3,1.98-.16.14-1.24.6-3.65.6h-11.01v-5.56h0ZM1216.04,110.28h14.73c2.56,0,3.77.49,4.06.75.13.11.48.84.48,2.62,0,2.59,0,3.56-4.54,3.56h-14.73v-6.93h0Z"/>
    </g>
    <g>
      <path class="cls-3" d="M393.34-2.83c6.27,0,8.43,1.96,8.43,8.23v123.07c0,6.08-2.16,8.03-8.43,8.03h-21.36c-6.27,0-8.23-1.96-8.23-8.03v-28.02c0-14.11,2.94-31.16,8.62-51.34h-2.16c-.98,3.33-2.94,8.62-5.88,15.87-2.94,7.25-5.29,12.74-7.25,16.46l-10.97,22.14c-2.35,4.12-4.51,5.68-9.41,5.68h-13.13c-5.29,0-7.25-1.18-9.41-5.68l-11.56-22.14c-4.12-7.25-8.03-18.03-12.15-32.33h-1.96c5.29,21.36,8.04,38.61,8.04,51.54v27.83c0,6.08-2.16,8.03-8.43,8.03h-19.99c-6.27,0-8.43-1.96-8.43-8.03V5.4c0-6.27,2.16-8.23,8.43-8.23h18.42c6.86,0,8.62,1.18,11.56,6.07l32.33,63.49L362.77,3.44c2.55-5.29,4.51-6.27,10.97-6.27h19.6Z"/>
      <path class="cls-3" d="M548.54,128.46c1.96,5.29,0,8.03-5.68,8.03h-21.16c-10,0-13.13-1.96-14.7-8.23l-4.51-14.11h-42.33l-4.51,14.11c-2.16,6.27-4.9,8.23-14.31,8.23h-20.58c-5.49,0-7.25-2.74-5.29-8.03L460.55,4.22c1.76-5.49,4.12-6.86,10.19-6.86h22.34c5.68,0,8.43,1.57,10.19,6.47l45.27,124.64ZM486.42,60.46c-2.35-7.84-3.92-18.23-4.12-23.52l-.2-3.92h-1.96c.2,9.41-1.18,18.42-3.72,27.24l-7.25,23.12h24.5l-7.25-22.93Z"/>
      <path class="cls-3" d="M672.58,126.9c2.94,5.29,1.18,9.6-5.1,9.6h-21.16c-10.78,0-14.31-1.37-17.44-8.23l-17.05-35.08c-3.33-7.05-6.27-9.8-13.33-9.8h-3.53v44.88c0,6.07-1.96,8.23-8.23,8.23h-22.14c-6.27,0-8.43-2.16-8.43-8.23V5.59c0-6.07,2.16-8.23,8.43-8.23h22.14c6.27,0,8.23,2.16,8.23,8.23v43.51h4.31l28.22-44.48c1.96-3.14,3.92-5.1,5.68-6.08,1.76-.78,5.09-1.18,9.99-1.18h22.54c6.08,0,7.84,3.33,4.7,8.62l-35.67,56.83c4.51,3.33,8.62,8.23,11.95,15.09l25.87,48.99Z"/>
      <path class="cls-3" d="M775.07-2.64c6.27,0,8.43,2.16,8.43,8.23v17.64c0,6.27-2.16,8.43-8.43,8.43h-51.74v17.44h41.35c6.27,0,8.43,2.16,8.43,8.23v17.64c0,6.27-2.16,8.43-8.43,8.43h-41.35v18.81h53.5c6.08,0,8.23,1.96,8.23,8.23v17.83c0,6.07-2.16,8.23-8.23,8.23h-83.88c-6.27,0-8.43-2.16-8.43-8.23V5.59c0-6.07,2.16-8.23,8.43-8.23h82.11Z"/>
      <path class="cls-3" d="M864.03-2.64c29.98,0,48.8,17.25,48.8,47.23,0,19.01-7.05,32.53-21.16,40.37,2.16,2.55,3.92,5.49,5.29,8.43l17.64,33.51c2.94,5.29,1.18,9.6-5.09,9.6h-21.17c-10.19,0-14.89-2.35-18.03-9.41l-12.54-26.85c-3.72-7.05-7.05-9.99-14.7-9.99h-4.51v38.02c0,6.07-1.96,8.23-8.23,8.23h-22.14c-6.27,0-8.43-2.16-8.43-8.23V5.59c0-6.07,2.16-8.23,8.43-8.23h55.85ZM859.72,31.66h-21.16v25.87h21.16c8.04,0,12.93-5.09,12.93-13.13s-4.51-12.74-12.93-12.74Z"/>
    </g>
    <g>
      <path class="cls-3" d="M978.62-2.03c6.27,0,8.23,2.16,8.23,8.23v96.61h47.23c6.08,0,8.23,1.96,8.23,8.23v17.83c0,6.08-2.16,8.23-8.23,8.23h-77.6c-6.27,0-8.43-2.16-8.43-8.23V6.2c0-6.07,2.16-8.23,8.43-8.23h22.14Z"/>
      <path class="cls-3" d="M1181.44,129.08c1.96,5.29,0,8.03-5.68,8.03h-21.17c-9.99,0-13.13-1.96-14.7-8.23l-4.51-14.11h-42.33l-4.51,14.11c-2.16,6.27-4.9,8.23-14.31,8.23h-20.58c-5.49,0-7.25-2.74-5.29-8.03l45.07-124.24c1.76-5.49,4.12-6.86,10.19-6.86h22.34c5.68,0,8.43,1.57,10.19,6.47l45.27,124.64ZM1119.32,61.08c-2.35-7.84-3.92-18.23-4.12-23.52l-.2-3.92h-1.96c.2,9.41-1.18,18.42-3.72,27.24l-7.25,23.12h24.5l-7.25-22.93Z"/>
      <path class="cls-3" d="M1254.92-2.22c27.24,0,43.31,13.52,43.31,37.23,0,12.74-4.7,22.34-14.11,28.81v.78c13.13,5.68,19.79,17.05,19.79,33.71,0,12.35-4.51,21.75-13.33,28.61-9.01,6.86-20.58,10.19-34.88,10.19h-58.2c-6.27,0-8.43-2.16-8.43-8.23V6.2c0-6.27,2.16-8.43,8.43-8.43h57.42ZM1246.89,29.33h-19.01v21.56h19.01c8.03,0,11.95-3.53,11.95-10.58s-3.92-10.97-11.95-10.97ZM1250.61,82.44h-22.73v22.93h22.73c8.43,0,12.54-3.92,12.54-11.56s-4.12-11.37-12.54-11.37Z"/>
    </g>
  </g>
</svg>