<?xml version="1.0" encoding="UTF-8"?>
<svg id="Camada_1" data-name="Camada 1" xmlns="http://www.w3.org/2000/svg" viewBox="0 0 425.84 374.19">
  <defs>
    <style>
      .cls-1 {
        fill: #63c0de;
      }

      .cls-2 {
        fill: #fff;
      }

      .cls-3 {
        fill: #056fb6;
      }

      .cls-4 {
        fill: #104588;
      }
    </style>
  </defs>
  <path class="cls-3" d="M281.11,174.38c-10.16-10.63-26.75-13.01-39.67-4.87-9.74,6.13-15,16.73-14.74,27.45,1.93,2.66,3.66,5.48,5.09,8.48l49.32-31.08v.03Z"/>
  <path class="cls-1" d="M341.32,51.09C307.8,19.44,262.65,0,212.91,0S118.04,19.44,84.52,51.09h256.8Z"/>
  <path class="cls-3" d="M93.14,118.79v126.51c0,12.51,10.16,22.66,22.66,22.66h194.24c12.51,0,22.66-10.16,22.66-22.66V106.23c0-12.51-10.16-22.66-22.66-22.66H115.8c-12.51,0-22.66,10.16-22.66,22.66v1.82h92.41v-16.65c0-2.07,1.68-3.78,3.78-3.78h47.64c2.07,0,3.78,1.68,3.78,3.78v16.65h69.16c2.97,0,5.37,2.41,5.37,5.37s-2.41,5.37-5.37,5.37h-69.16v13.99c0,2.49-1.12,4.84-3.08,6.41l-19.36,15.61c-2.99,2.43-7.3,2.43-10.3,0l-19.36-15.61c-1.93-1.57-3.08-3.92-3.08-6.41v-13.99h-92.44ZM305.4,264.66H118.9c-3.47,0-6.27-2.8-6.27-6.27s2.8-6.27,6.27-6.27h186.5c3.47,0,6.27,2.8,6.27,6.27s-2.8,6.27-6.27,6.27ZM132.02,237.08c0-5.88,4.76-10.63,10.63-10.63h.36c5.88,0,10.63,4.76,10.63,10.63s-4.76,10.63-10.63,10.63h-.36c-5.88,0-10.63-4.76-10.63-10.63ZM207.2,180.56c3.61-11.81,11.33-22.44,22.61-29.54,24.98-15.75,58.02-8.25,73.78,16.73,3.5,5.54,5.85,11.5,7.11,17.54l-20.84,13.12-21.6,13.6-21.6,13.6c9.06,3.58,19.64,2.97,28.51-2.63l36.51-23c-1.18,16.42-9.85,32.06-24.84,41.52-16.28,10.27-36.01,10.66-52.12,2.74-.59,1.87-1.23,3.72-2.01,5.48h-30.83c5.9-5.15,9.62-12.7,9.62-21.15,0-3.83-.76-7.47-2.15-10.8-.06-.17-.14-.31-.22-.48-4.34-9.88-14.18-16.76-25.65-16.76-13.93,0-25.49,10.16-27.67,23.47v.42h-25.74v-96.27h25.74v54.56c8.09-4.87,17.54-7.69,27.67-7.69,8.51,0,16.56,1.99,23.72,5.54h.03Z"/>
  <path class="cls-1" d="M367.7,82v210.19c20.37-29.96,32.31-66.14,32.31-105.11s-11.92-75.15-32.31-105.11v.03Z"/>
  <path class="cls-1" d="M58.14,228.8V82c-20.4,29.96-32.31,66.14-32.31,105.08s11.92,75.15,32.31,105.11v-63.4Z"/>
  <path class="cls-3" d="M208.85,108.05h22.66v-6.38c0-1.4-1.12-2.52-2.52-2.52h-31.73c-1.4,0-2.52,1.12-2.52,2.52v27.56c0,1.65.76,3.22,2.04,4.25l12.9,10.38c2.01,1.62,4.87,1.62,6.85,0l12.9-10.38c1.29-1.04,2.04-2.6,2.04-4.25v-10.41h-22.66c-2.97,0-5.37-2.41-5.37-5.37s2.41-5.37,5.37-5.37l.03-.03Z"/>
  <path class="cls-1" d="M331.05,323.11c-4.45,0-8.2-3.16-9.04-7.36-.31-1.57-.62-3.16-1.15-4.67l-3.58-10.6H108.52l-3.58,10.6c-.5,1.51-.81,3.11-1.12,4.67-.87,4.2-4.59,7.36-9.04,7.36h-10.24c33.52,31.64,78.67,51.09,128.39,51.09s94.9-19.44,128.39-51.09h-10.27Z"/>
  <rect class="cls-4" x="86.07" y="305.84" width="252.16" height="68.35" rx="5.02" ry="5.02"/>
  <g>
    <path class="cls-2" d="M97,350.29c-.58-1.53-.16-2.32,1.42-2.85l5.16-1.84c1.53-.58,2.21-.21,2.85,1.42.84,2.27,2.32,3.43,5.32,3.43,2.74,0,4.11-1,4.11-3.11,0-2.27-1.21-3.11-3.43-3.11h-3.27c-1.69,0-2.21-.58-2.21-2.27v-4.32c0-1.69.53-2.27,2.21-2.27h2.32c2.06,0,3.64-.79,3.64-2.9s-1.16-2.9-3.64-2.9c-2.95,0-4.01,1.05-4.95,3.43-.63,1.63-1.27,1.95-2.85,1.42l-5.16-1.85c-1.58-.58-1.95-1.32-1.42-2.85,2.21-5.9,6.96-9.22,15.55-9.22s12.97,4.32,12.97,10.91c0,3.32-1.42,5.96-4.06,7.69,3.58,1.9,5.22,5.06,5.22,8.85,0,7.27-4.59,11.54-14.23,11.54-8.54,0-13.39-3.32-15.55-9.22Z"/>
    <path class="cls-2" d="M131.3,356.51v-32.99c0-1.63.53-2.21,2.21-2.21h12.86c10.38,0,16.18,5.64,16.18,14.7v7.96c0,9.07-5.8,14.76-16.18,14.76h-12.86c-1.69,0-2.21-.58-2.21-2.21ZM152.12,343.81v-7.59c0-3.74-1.84-5.75-6.11-5.75h-4.32v19.03h4.32c4.27,0,6.11-1.95,6.11-5.69Z"/>
    <path class="cls-2" d="M176.68,356.51v-32.99c0-1.63.53-2.21,2.21-2.21h14.55c8.22,0,13.6,4.8,13.6,13.18s-5.32,13.02-13.49,13.02h-6.48v9.01c0,1.63-.53,2.21-2.21,2.21h-5.96c-1.69,0-2.21-.58-2.21-2.21ZM196.23,334.38c0-2.32-1.42-3.9-3.95-3.9h-5.22v7.8h5.22c2.48,0,3.95-1.53,3.95-3.9Z"/>
    <path class="cls-2" d="M210.98,356.51v-32.99c0-1.63.53-2.21,2.21-2.21h15.02c7.96,0,13.12,4.53,13.12,12.7,0,5.11-2.11,8.85-5.69,10.86.53.68,1,1.42,1.42,2.27l4.74,9.01c.74,1.42.37,2.58-1.37,2.58h-5.69c-2.79,0-3.95-.68-4.85-2.53l-3.37-7.22c-.9-1.79-1.79-2.69-3.95-2.69h-1.21v10.22c0,1.63-.53,2.21-2.21,2.21h-5.96c-1.69,0-2.21-.58-2.21-2.21ZM230.53,333.95c0-2.16-1.21-3.48-3.48-3.48h-5.69v7.01h5.69c2.21,0,3.48-1.37,3.48-3.53Z"/>
    <path class="cls-2" d="M246.03,356.62v-33.2c0-1.58.53-2.11,2.11-2.11h6.17c1.58,0,2.11.53,2.11,2.11v33.2c0,1.58-.53,2.11-2.11,2.11h-6.17c-1.58,0-2.11-.53-2.11-2.11Z"/>
    <path class="cls-2" d="M261.99,356.51v-32.99c0-1.63.53-2.21,2.21-2.21h6.22c1.16,0,1.74.32,2.21,1.05l8.64,13.54c2.32,3.58,2.79,5.64,4.43,9.59h.42c-1.69-5.38-2.37-7.96-2.37-13.28v-8.7c0-1.63.53-2.21,2.21-2.21h5.38c1.63,0,2.21.58,2.21,2.21v32.99c0,1.63-.58,2.21-2.21,2.21h-5.96c-1.11,0-1.69-.32-2.16-1.05l-8.12-12.54c-2.32-3.64-3.21-6.11-4.64-10.8h-.42c1.11,4.95,1.74,7.69,1.74,13.6v8.59c0,1.63-.58,2.21-2.27,2.21h-5.32c-1.69,0-2.21-.58-2.21-2.21Z"/>
    <path class="cls-2" d="M307.1,356.51v-26.04h-7.85c-1.69,0-2.21-.53-2.21-2.21v-4.74c0-1.63.53-2.21,2.21-2.21h26.09c1.69,0,2.21.58,2.21,2.21v4.74c0,1.69-.53,2.21-2.21,2.21h-7.85v26.04c0,1.63-.53,2.21-2.21,2.21h-5.96c-1.69,0-2.21-.58-2.21-2.21Z"/>
  </g>
</svg>