<?xml version="1.0" encoding="UTF-8"?>
<svg id="Camada_1" data-name="Camada 1" xmlns="http://www.w3.org/2000/svg" viewBox="0 0 1112.89 374.19">
  <defs>
    <style>
      .cls-1 {
        fill: #63c0de;
      }

      .cls-2 {
        fill: #056fb6;
      }

      .cls-3 {
        opacity: .2;
      }

      .cls-4 {
        fill: #104588;
      }

      .cls-5 {
        fill: #585758;
      }
    </style>
  </defs>
  <g class="cls-3">
    <g>
      <g>
        <path class="cls-5" d="M570.41,55.24c6.27,0,8.43,1.96,8.43,8.23v123.07c0,6.08-2.16,8.03-8.43,8.03h-21.36c-6.27,0-8.23-1.96-8.23-8.03v-28.02c0-14.11,2.94-31.16,8.62-51.34h-2.16c-.98,3.33-2.94,8.62-5.88,15.87-2.94,7.25-5.29,12.74-7.25,16.46l-10.97,22.14c-2.35,4.12-4.51,5.68-9.41,5.68h-13.13c-5.29,0-7.25-1.18-9.41-5.68l-11.56-22.14c-4.12-7.25-8.03-18.03-12.15-32.33h-1.96c5.29,21.36,8.04,38.61,8.04,51.54v27.83c0,6.08-2.16,8.03-8.43,8.03h-19.99c-6.27,0-8.43-1.96-8.43-8.03V63.47c0-6.27,2.16-8.23,8.43-8.23h18.42c6.86,0,8.62,1.18,11.56,6.07l32.33,63.49,32.33-63.3c2.55-5.29,4.51-6.27,10.97-6.27h19.6M570.41,47.24h-19.6c-8.19,0-13.8,1.76-18.14,10.71l-25.16,49.25-25.22-49.52c-.08-.16-.17-.33-.27-.49-4.52-7.54-9-9.96-18.42-9.96h-18.42c-13.58,0-16.43,8.83-16.43,16.23v123.07c0,7.31,2.85,16.03,16.43,16.03h19.99c13.58,0,16.43-8.72,16.43-16.03v-26.06l2.48,4.76c3.47,7.17,8.28,10.1,16.56,10.1h13.13c7.57,0,12.46-2.91,16.35-9.71.08-.14.15-.28.22-.42l2.47-4.98v26.32c0,10.49,5.61,16.03,16.23,16.03h21.36c13.58,0,16.43-8.72,16.43-16.03V63.47c0-7.4-2.85-16.23-16.43-16.23h0Z"/>
        <path class="cls-5" d="M670.15,55.43c5.68,0,8.43,1.57,10.19,6.47l45.27,124.64c1.96,5.29,0,8.03-5.68,8.03h-21.16c-10,0-13.13-1.96-14.7-8.23l-4.51-14.11h-42.33l-4.51,14.11c-2.16,6.27-4.9,8.23-14.31,8.23h-20.58c-5.49,0-7.25-2.74-5.29-8.03l45.07-124.24c1.76-5.49,4.12-6.86,10.19-6.86h22.34M646.25,141.46h24.5l-7.25-22.93c-2.35-7.84-3.92-18.23-4.12-23.52l-.2-3.92h-1.96c.2,9.41-1.18,18.42-3.72,27.24l-7.25,23.12M670.15,47.43h-22.34c-6.8,0-14.22,1.46-17.76,12.26l-45.02,124.09c-2.43,6.58-.88,10.92.85,13.41,1.71,2.46,5.17,5.38,11.95,5.38h20.58c10.32,0,17.98-2.32,21.87-13.63.02-.06.04-.11.05-.17l2.73-8.54h30.64l2.66,8.32c3.21,12.31,12.65,14.02,22.39,14.02h21.16c7,0,10.55-2.98,12.29-5.49,1.74-2.49,3.3-6.83.89-13.32l-45.25-124.59c-3.79-10.52-11.92-11.74-17.71-11.74h0ZM657.14,133.46l1.34-4.26,1.35,4.26h-2.68Z"/>
        <path class="cls-5" d="M842.8,55.43c6.08,0,7.84,3.33,4.7,8.62l-35.67,56.83c4.51,3.33,8.62,8.23,11.95,15.09l25.87,48.99c2.94,5.29,1.18,9.6-5.1,9.6h-21.16c-10.78,0-14.31-1.37-17.44-8.23l-17.05-35.08c-3.33-7.05-6.27-9.8-13.33-9.8h-3.53v44.88c0,6.07-1.96,8.23-8.23,8.23h-22.14c-6.27,0-8.43-2.16-8.43-8.23V63.66c0-6.07,2.16-8.23,8.43-8.23h22.14c6.27,0,8.23,2.16,8.23,8.23v43.51h4.31l28.22-44.48c1.96-3.14,3.92-5.1,5.68-6.08,1.76-.78,5.09-1.18,9.99-1.18h22.54M842.8,47.43h-22.54c-6.26,0-10.34.58-13.24,1.87-.22.1-.43.2-.64.32-3.11,1.73-5.99,4.69-8.57,8.8l-17.76,28v-22.76c0-10.62-5.61-16.23-16.23-16.23h-22.14c-10.59,0-16.43,5.76-16.43,16.23v122.68c0,10.47,5.83,16.23,16.43,16.23h22.14c10.62,0,16.23-5.61,16.23-16.23v-34.76c.46.74.98,1.74,1.62,3.1.01.03.03.05.04.08l17.01,35c5.47,11.87,14.04,12.81,24.68,12.81h21.16c5.68,0,10.32-2.36,12.75-6.49,2.5-4.24,2.27-9.67-.61-14.92l-25.77-48.81c-2.44-5-5.37-9.32-8.74-12.91l32.09-51.14c.04-.06.07-.12.11-.17,4.14-6.99,2.49-12.02,1.14-14.4-1.34-2.35-4.78-6.3-12.72-6.3h0Z"/>
        <path class="cls-5" d="M952.14,55.43c6.27,0,8.43,2.16,8.43,8.23v17.64c0,6.27-2.16,8.43-8.43,8.43h-51.74v17.44h41.35c6.27,0,8.43,2.16,8.43,8.23v17.64c0,6.27-2.16,8.43-8.43,8.43h-41.35v18.81h53.5c6.08,0,8.23,1.96,8.23,8.23v17.83c0,6.07-2.16,8.23-8.23,8.23h-83.88c-6.27,0-8.43-2.16-8.43-8.23V63.66c0-6.07,2.16-8.23,8.43-8.23h82.11M952.14,47.43h-82.11c-10.59,0-16.43,5.76-16.43,16.23v122.68c0,10.47,5.83,16.23,16.43,16.23h83.88c10.47,0,16.23-5.76,16.23-16.23v-17.83c0-10.62-5.61-16.23-16.23-16.23h-45.5v-2.81h33.35c10.75,0,16.43-5.68,16.43-16.43v-17.64c0-10.47-5.83-16.23-16.43-16.23h-33.35v-1.44h43.74c10.75,0,16.43-5.68,16.43-16.43v-17.64c0-10.47-5.83-16.23-16.43-16.23h0Z"/>
        <path class="cls-5" d="M1041.11,55.43c29.98,0,48.8,17.25,48.8,47.23,0,19.01-7.05,32.53-21.16,40.37,2.16,2.55,3.92,5.49,5.29,8.43l17.64,33.51c2.94,5.29,1.18,9.6-5.09,9.6h-21.17c-10.19,0-14.89-2.35-18.03-9.41l-12.54-26.85c-3.72-7.05-7.05-9.99-14.7-9.99h-4.51v38.02c0,6.07-1.96,8.23-8.23,8.23h-22.14c-6.27,0-8.43-2.16-8.43-8.23V63.66c0-6.07,2.16-8.23,8.43-8.23h55.85M1015.63,115.59h21.16c8.04,0,12.93-5.09,12.93-13.13s-4.51-12.74-12.93-12.74h-21.16v25.87M1041.11,47.43h-55.85c-10.59,0-16.43,5.76-16.43,16.23v122.68c0,10.47,5.83,16.23,16.43,16.23h22.14c10.62,0,16.23-5.61,16.23-16.23v-29.55c1.32.6,2.38,1.97,4.04,5.1l12.43,26.6c5.55,12.41,15.91,14.08,25.31,14.08h21.17c5.68,0,10.32-2.36,12.75-6.49,2.49-4.24,2.27-9.67-.61-14.91l-17.51-33.28c-.44-.93-.89-1.83-1.37-2.7,4.95-3.99,8.93-8.83,11.87-14.45,4.12-7.86,6.2-17.31,6.2-28.08,0-16.84-5.41-30.89-15.63-40.65-10-9.54-24.24-14.58-41.16-14.58h0ZM1023.63,97.73h13.16c3.78,0,4.93,1.11,4.93,4.74,0,4.26-1.97,5.13-4.93,5.13h-13.16v-9.87h0Z"/>
      </g>
      <g>
        <path class="cls-5" d="M767.75,219.5c6.27,0,8.23,2.16,8.23,8.23v96.61h47.23c6.08,0,8.23,1.96,8.23,8.23v17.83c0,6.08-2.16,8.23-8.23,8.23h-77.6c-6.27,0-8.43-2.16-8.43-8.23v-122.68c0-6.07,2.16-8.23,8.43-8.23h22.14M767.75,211.5h-22.14c-10.59,0-16.43,5.76-16.43,16.23v122.68c0,10.47,5.83,16.23,16.43,16.23h77.6c10.47,0,16.23-5.76,16.23-16.23v-17.83c0-10.62-5.61-16.23-16.23-16.23h-39.23v-88.61c0-10.62-5.61-16.23-16.23-16.23h0Z"/>
        <path class="cls-5" d="M915.12,219.5c5.68,0,8.43,1.57,10.19,6.47l45.27,124.64c1.96,5.29,0,8.03-5.68,8.03h-21.17c-9.99,0-13.13-1.96-14.7-8.23l-4.51-14.11h-42.33l-4.51,14.11c-2.16,6.27-4.9,8.23-14.31,8.23h-20.58c-5.49,0-7.25-2.74-5.29-8.03l45.07-124.24c1.76-5.49,4.12-6.86,10.19-6.86h22.34M891.21,305.53h24.5l-7.25-22.93c-2.35-7.84-3.92-18.23-4.12-23.52l-.2-3.92h-1.96c.2,9.41-1.18,18.42-3.72,27.24l-7.25,23.12M915.12,211.5h-22.34c-6.8,0-14.22,1.46-17.76,12.26l-45.02,124.1c-2.43,6.57-.88,10.92.85,13.4,1.71,2.46,5.17,5.38,11.95,5.38h20.58c10.32,0,17.98-2.32,21.87-13.63.02-.06.04-.11.05-.17l2.73-8.54h30.64l2.66,8.32c3.21,12.31,12.65,14.02,22.39,14.02h21.17c7,0,10.55-2.98,12.29-5.49,1.73-2.49,3.29-6.82.9-13.3l-45.26-124.62c-3.79-10.52-11.92-11.74-17.71-11.74h0ZM902.1,297.53l1.34-4.26,1.35,4.26h-2.68Z"/>
        <path class="cls-5" d="M1044.06,219.31c27.24,0,43.31,13.52,43.31,37.23,0,12.74-4.7,22.34-14.11,28.81v.78c13.13,5.68,19.79,17.05,19.79,33.71,0,12.35-4.51,21.75-13.33,28.61-9.01,6.86-20.58,10.19-34.88,10.19h-58.2c-6.27,0-8.43-2.16-8.43-8.23v-122.68c0-6.27,2.16-8.43,8.43-8.43h57.42M1017.02,272.41h19.01c8.03,0,11.95-3.53,11.95-10.58s-3.92-10.97-11.95-10.97h-19.01v21.56M1017.02,326.89h22.73c8.43,0,12.54-3.92,12.54-11.56s-4.12-11.37-12.54-11.37h-22.73v22.93M1044.06,211.31h-57.42c-10.75,0-16.43,5.68-16.43,16.43v122.68c0,10.47,5.83,16.23,16.43,16.23h58.2c16.05,0,29.42-3.98,39.73-11.82.02-.02.04-.03.07-.05,10.89-8.47,16.41-20.22,16.41-34.93,0-18.08-6.93-28.88-15-35.32,6.19-7.36,9.32-16.72,9.32-27.98,0-14.01-4.92-25.63-14.24-33.59-8.91-7.62-21.73-11.64-37.07-11.64h0ZM1025.02,258.86h11.01c2.35,0,3.36.46,3.55.64.08.07.4.72.4,2.34,0,1.5-.3,1.98-.3,1.98-.16.14-1.24.6-3.65.6h-11.01v-5.56h0ZM1025.02,311.96h14.73c2.56,0,3.77.49,4.06.75.13.11.48.84.48,2.62,0,2.59,0,3.56-4.54,3.56h-14.73v-6.93h0Z"/>
      </g>
    </g>
  </g>
  <g>
    <path class="cls-2" d="M298.54,236.48c-12.2,7.69-26.75,8.55-39.21,3.62l29.7-18.71,29.7-18.71,28.66-18.06c-1.74-8.34-4.97-16.51-9.78-24.14-21.66-34.38-67.09-44.69-101.47-23.02-15.51,9.78-26.11,24.4-31.09,40.65-9.84-4.87-20.91-7.61-32.63-7.61-13.93,0-26.94,3.88-38.04,10.59v-75.06h-35.41v132.43h35.41v-.56c3-18.31,18.89-32.28,38.04-32.28,15.78,0,29.34,9.48,35.31,23.06.1.22.19.44.29.66,1.91,4.57,2.97,9.58,2.97,14.85,0,11.61-5.14,22.02-13.26,29.09h42.41c1.05-2.45,1.96-4.97,2.75-7.55,22.16,10.87,49.27,10.35,71.69-3.78,20.62-12.99,32.56-34.53,34.16-57.1l-50.21,31.64ZM252.19,162.92c17.78-11.21,40.57-7.93,54.56,6.69l-67.84,42.75c-1.98-4.12-4.33-8.02-7.01-11.67-.32-14.76,6.89-29.32,20.29-37.77Z"/>
    <rect class="cls-2" x="101.64" y="241.23" width="29.77" height="29.27" rx="14.63" ry="14.63"/>
  </g>
  <path class="cls-1" d="M394.66,0H31.18C13.96,0,0,13.96,0,31.18v330.32C0,368.51,5.69,374.19,12.7,374.19h37.69c6.14,0,11.26-4.35,12.44-10.14.44-2.16.85-4.33,1.56-6.42l4.92-14.59h287.23l4.92,14.59c.7,2.09,1.12,4.26,1.56,6.42,1.18,5.79,6.3,10.14,12.44,10.14h37.69c7.01,0,12.7-5.69,12.7-12.7V31.18c0-17.22-13.96-31.18-31.18-31.18ZM377.68,267.17c0,17.21-13.95,31.16-31.16,31.16H79.33c-17.21,0-31.16-13.95-31.16-31.16V93.15h127.11v19.23c0,3.42,1.55,6.66,4.22,8.81l26.65,21.46c4.14,3.33,10.04,3.33,14.18,0l26.65-21.46c2.67-2.15,4.22-5.38,4.22-8.81v-19.23h95.13c4.08,0,7.39-3.31,7.39-7.39s-3.31-7.39-7.39-7.39h-95.13v-22.91c0-2.86-2.32-5.18-5.18-5.18h-65.54c-2.86,0-5.18,2.32-5.18,5.18v22.91H48.16v-2.5c0-17.21,13.95-31.16,31.16-31.16h267.19c17.21,0,31.16,13.95,31.16,31.16v191.31ZM207.31,93.15h31.18v14.33c0,2.28-1.03,4.43-2.81,5.86l-17.74,14.29c-2.76,2.22-6.69,2.22-9.44,0l-17.74-14.29c-1.77-1.43-2.81-3.58-2.81-5.86v-37.91c0-1.91,1.54-3.45,3.45-3.45h43.64c1.91,0,3.45,1.54,3.45,3.45v8.79h-31.18c-4.08,0-7.39,3.31-7.39,7.39s3.31,7.39,7.39,7.39Z"/>
  <path class="cls-4" d="M340.14,276.58H83.62c-4.76,0-8.61,3.86-8.61,8.61s3.86,8.61,8.61,8.61h256.52c4.76,0,8.61-3.86,8.61-8.61s-3.86-8.61-8.61-8.61Z"/>
  <g>
    <g>
      <path class="cls-4" d="M590.25,35.39c6.27,0,8.43,1.96,8.43,8.23v123.07c0,6.08-2.16,8.03-8.43,8.03h-21.36c-6.27,0-8.23-1.96-8.23-8.03v-28.02c0-14.11,2.94-31.16,8.62-51.34h-2.16c-.98,3.33-2.94,8.62-5.88,15.87-2.94,7.25-5.29,12.74-7.25,16.46l-10.97,22.14c-2.35,4.12-4.51,5.68-9.41,5.68h-13.13c-5.29,0-7.25-1.18-9.41-5.68l-11.56-22.14c-4.12-7.25-8.03-18.03-12.15-32.33h-1.96c5.29,21.36,8.04,38.61,8.04,51.54v27.83c0,6.08-2.16,8.03-8.43,8.03h-19.99c-6.27,0-8.43-1.96-8.43-8.03V43.62c0-6.27,2.16-8.23,8.43-8.23h18.42c6.86,0,8.62,1.18,11.56,6.07l32.33,63.49,32.33-63.3c2.55-5.29,4.51-6.27,10.97-6.27h19.6Z"/>
      <path class="cls-4" d="M745.46,166.69c1.96,5.29,0,8.03-5.68,8.03h-21.16c-10,0-13.13-1.96-14.7-8.23l-4.51-14.11h-42.33l-4.51,14.11c-2.16,6.27-4.9,8.23-14.31,8.23h-20.58c-5.49,0-7.25-2.74-5.29-8.03l45.07-124.24c1.76-5.49,4.12-6.86,10.19-6.86h22.34c5.68,0,8.43,1.57,10.19,6.47l45.27,124.64ZM683.33,98.69c-2.35-7.84-3.92-18.23-4.12-23.52l-.2-3.92h-1.96c.2,9.41-1.18,18.42-3.72,27.24l-7.25,23.12h24.5l-7.25-22.93Z"/>
      <path class="cls-4" d="M869.5,165.13c2.94,5.29,1.18,9.6-5.1,9.6h-21.16c-10.78,0-14.31-1.37-17.44-8.23l-17.05-35.08c-3.33-7.05-6.27-9.8-13.33-9.8h-3.53v44.88c0,6.07-1.96,8.23-8.23,8.23h-22.14c-6.27,0-8.43-2.16-8.43-8.23V43.82c0-6.07,2.16-8.23,8.43-8.23h22.14c6.27,0,8.23,2.16,8.23,8.23v43.51h4.31l28.22-44.48c1.96-3.14,3.92-5.1,5.68-6.08,1.76-.78,5.09-1.18,9.99-1.18h22.54c6.08,0,7.84,3.33,4.7,8.62l-35.67,56.83c4.51,3.33,8.62,8.23,11.95,15.09l25.87,48.99Z"/>
      <path class="cls-4" d="M971.98,35.59c6.27,0,8.43,2.16,8.43,8.23v17.64c0,6.27-2.16,8.43-8.43,8.43h-51.74v17.44h41.35c6.27,0,8.43,2.16,8.43,8.23v17.64c0,6.27-2.16,8.43-8.43,8.43h-41.35v18.81h53.5c6.08,0,8.23,1.96,8.23,8.23v17.83c0,6.07-2.16,8.23-8.23,8.23h-83.88c-6.27,0-8.43-2.16-8.43-8.23V43.82c0-6.07,2.16-8.23,8.43-8.23h82.11Z"/>
      <path class="cls-4" d="M1060.95,35.59c29.98,0,48.8,17.25,48.8,47.23,0,19.01-7.05,32.53-21.16,40.37,2.16,2.55,3.92,5.49,5.29,8.43l17.64,33.51c2.94,5.29,1.18,9.6-5.09,9.6h-21.17c-10.19,0-14.89-2.35-18.03-9.41l-12.54-26.85c-3.72-7.05-7.05-9.99-14.7-9.99h-4.51v38.02c0,6.07-1.96,8.23-8.23,8.23h-22.14c-6.27,0-8.43-2.16-8.43-8.23V43.82c0-6.07,2.16-8.23,8.43-8.23h55.85ZM1056.64,69.88h-21.16v25.87h21.16c8.04,0,12.93-5.09,12.93-13.13s-4.51-12.74-12.93-12.74Z"/>
    </g>
    <g>
      <path class="cls-4" d="M787.6,199.66c6.27,0,8.23,2.16,8.23,8.23v96.61h47.23c6.08,0,8.23,1.96,8.23,8.23v17.83c0,6.08-2.16,8.23-8.23,8.23h-77.6c-6.27,0-8.43-2.16-8.43-8.23v-122.68c0-6.07,2.16-8.23,8.43-8.23h22.14Z"/>
      <path class="cls-4" d="M990.42,330.76c1.96,5.29,0,8.03-5.68,8.03h-21.17c-9.99,0-13.13-1.96-14.7-8.23l-4.51-14.11h-42.33l-4.51,14.11c-2.16,6.27-4.9,8.23-14.31,8.23h-20.58c-5.49,0-7.25-2.74-5.29-8.03l45.07-124.24c1.76-5.49,4.12-6.86,10.19-6.86h22.34c5.68,0,8.43,1.57,10.19,6.47l45.27,124.64ZM928.3,262.76c-2.35-7.84-3.92-18.23-4.12-23.52l-.2-3.92h-1.96c.2,9.41-1.18,18.42-3.72,27.24l-7.25,23.12h24.5l-7.25-22.93Z"/>
      <path class="cls-4" d="M1063.9,199.46c27.24,0,43.31,13.52,43.31,37.23,0,12.74-4.7,22.34-14.11,28.81v.78c13.13,5.68,19.79,17.05,19.79,33.71,0,12.35-4.51,21.75-13.33,28.61-9.01,6.86-20.58,10.19-34.88,10.19h-58.2c-6.27,0-8.43-2.16-8.43-8.23v-122.68c0-6.27,2.16-8.43,8.43-8.43h57.42ZM1055.87,231.01h-19.01v21.56h19.01c8.03,0,11.95-3.53,11.95-10.58s-3.92-10.97-11.95-10.97ZM1059.59,284.12h-22.73v22.93h22.73c8.43,0,12.54-3.92,12.54-11.56s-4.12-11.37-12.54-11.37Z"/>
    </g>
  </g>
</svg>