<?xml version="1.0" encoding="UTF-8"?>
<svg id="Camada_1" data-name="Camada 1" xmlns="http://www.w3.org/2000/svg" viewBox="0 0 425.84 374.19">
  <defs>
    <style>
      .cls-1 {
        fill: #63c0de;
      }

      .cls-2 {
        fill: #fff;
      }

      .cls-3 {
        fill: #056fb6;
      }

      .cls-4 {
        fill: #104588;
      }
    </style>
  </defs>
  <g>
    <g>
      <path class="cls-3" d="M298.54,236.48c-12.2,7.69-26.75,8.55-39.21,3.62l29.7-18.71,29.7-18.71,28.66-18.06c-1.74-8.34-4.97-16.51-9.78-24.14-21.66-34.38-67.09-44.69-101.47-23.02-15.51,9.78-26.11,24.4-31.09,40.65-9.84-4.87-20.91-7.61-32.63-7.61-13.93,0-26.94,3.88-38.04,10.6v-75.06h-35.41v132.43h35.41v-.56c3-18.31,18.89-32.28,38.04-32.28,15.78,0,29.34,9.48,35.31,23.06.1.22.19.44.29.66,1.91,4.57,2.97,9.58,2.97,14.85,0,11.61-5.14,22.02-13.26,29.09h42.41c1.05-2.45,1.96-4.97,2.75-7.55,22.16,10.87,49.27,10.35,71.69-3.78,20.62-12.99,32.56-34.53,34.16-57.1l-50.21,31.64ZM252.19,162.92c17.78-11.21,40.57-7.93,54.56,6.69l-67.84,42.75c-1.98-4.12-4.33-8.02-7.01-11.67-.32-14.76,6.89-29.32,20.29-37.77Z"/>
      <rect class="cls-3" x="101.64" y="241.23" width="29.77" height="29.27" rx="14.63" ry="14.63"/>
    </g>
    <path class="cls-1" d="M394.66,0H31.17C13.96,0,0,13.96,0,31.17v330.32c0,7.01,5.69,12.7,12.7,12.7h37.69c6.14,0,11.26-4.35,12.44-10.14.44-2.16.85-4.33,1.56-6.42l4.92-14.59h287.23l4.92,14.59c.7,2.09,1.12,4.26,1.56,6.42,1.18,5.79,6.3,10.14,12.44,10.14h37.69c7.01,0,12.7-5.69,12.7-12.7V31.17C425.84,13.96,411.88,0,394.66,0ZM377.68,267.17c0,17.21-13.95,31.16-31.16,31.16H79.33c-17.21,0-31.16-13.95-31.16-31.16V93.15h127.11v19.23c0,3.42,1.55,6.66,4.22,8.81l26.65,21.46c4.14,3.33,10.04,3.33,14.18,0l26.65-21.46c2.67-2.15,4.22-5.38,4.22-8.81v-19.23h95.13c4.08,0,7.39-3.31,7.39-7.39s-3.31-7.39-7.39-7.39h-95.13v-22.91c0-2.86-2.32-5.18-5.18-5.18h-65.54c-2.86,0-5.18,2.32-5.18,5.18v22.91H48.16v-2.5c0-17.21,13.95-31.16,31.16-31.16h267.19c17.21,0,31.16,13.95,31.16,31.16v191.31ZM207.31,93.15h31.18v14.33c0,2.28-1.03,4.43-2.81,5.86l-17.74,14.29c-2.76,2.22-6.69,2.22-9.44,0l-17.74-14.29c-1.77-1.43-2.81-3.58-2.81-5.86v-37.91c0-1.91,1.54-3.45,3.45-3.45h43.64c1.91,0,3.45,1.54,3.45,3.45v8.79h-31.18c-4.08,0-7.39,3.31-7.39,7.39s3.31,7.39,7.39,7.39Z"/>
    <path class="cls-4" d="M340.14,276.58H83.62c-4.76,0-8.61,3.86-8.61,8.61s3.86,8.61,8.61,8.61h256.52c4.76,0,8.61-3.86,8.61-8.61s-3.86-8.61-8.61-8.61Z"/>
  </g>
  <rect class="cls-4" x="87.15" y="305.84" width="252.16" height="68.35" rx="5.02" ry="5.02"/>
  <g>
    <path class="cls-2" d="M96.45,360.86v-41.69c0-2.06.67-2.8,2.8-2.8h16.25c13.12,0,20.45,7.13,20.45,18.58v10.06c0,11.45-7.33,18.65-20.45,18.65h-16.25c-2.13,0-2.8-.73-2.8-2.8ZM122.75,344.81v-9.59c0-4.73-2.33-7.26-7.72-7.26h-5.46v24.04h5.46c5.39,0,7.72-2.46,7.72-7.19Z"/>
    <path class="cls-2" d="M141.8,360.86v-41.69c0-2.06.67-2.8,2.8-2.8h27.9c2.13,0,2.86.73,2.86,2.8v5.99c0,2.13-.73,2.8-2.86,2.8h-17.58v5.99h14.05c2.13,0,2.86.73,2.86,2.86v5.93c0,2.13-.73,2.86-2.86,2.86h-14.05v6.39h18.18c2.06,0,2.8.67,2.8,2.8v6.06c0,2.06-.73,2.8-2.8,2.8h-28.5c-2.13,0-2.8-.73-2.8-2.8Z"/>
    <path class="cls-2" d="M179.56,354.33c-.67-2-.13-2.93,1.8-3.66l6.26-2.26c2-.67,2.86-.47,3.93,1.47,1.2,2.33,3.8,3.53,7.53,3.53,4.46,0,7.19-.93,7.19-3.8,0-2.66-3.46-3.33-7.86-3.93-7.79-1.13-18.71-2.46-18.71-15.38,0-8.79,7.06-14.92,19.78-14.92,9.86,0,15.45,2.93,18.58,9.32.93,1.93.4,2.93-1.6,3.73l-6.59,2.86c-1.86.8-2.6.53-3.6-1.4-1.33-2.53-3.73-3.46-6.79-3.46-4.53,0-6.33,1.13-6.33,3.46,0,2.86,3.93,3.46,8.72,4.06,7.72,1.07,17.71,2.93,17.71,15.52,0,9.79-8.86,15.18-20.65,15.18-9.92,0-16.85-3.4-19.38-10.32Z"/>
    <path class="cls-2" d="M224.59,360.99v-41.96c0-2,.67-2.66,2.66-2.66h7.79c2,0,2.66.67,2.66,2.66v41.96c0,2-.67,2.66-2.66,2.66h-7.79c-2,0-2.66-.67-2.66-2.66Z"/>
    <path class="cls-2" d="M243.63,346.08v-12.12c0-11.45,7.33-18.58,20.44-18.58,10.26,0,16.65,4.2,19.38,11.65.73,1.93.2,2.86-1.73,3.6l-7.13,2.53c-2.06.6-2.86.27-3.6-1.8-1.2-3-3.13-4.33-6.93-4.33-5.26,0-7.33,2.26-7.33,6.86v12.25c0,4.6,2.06,6.86,7.33,6.86,4.46,0,7.19-1.67,7.19-4.53v-1.33h-6.39c-2.06,0-2.8-.73-2.8-2.8v-4.99c0-2.13.73-2.86,2.8-2.86h16.85c2.06,0,2.8.73,2.8,2.86v8.79c0,9.39-7.33,16.52-20.45,16.52s-20.44-7.13-20.44-18.58Z"/>
    <path class="cls-2" d="M290.12,360.86v-41.69c0-2.06.67-2.8,2.8-2.8h7.86c1.47,0,2.2.4,2.8,1.33l10.92,17.12c2.93,4.53,3.53,7.13,5.59,12.12h.53c-2.13-6.79-3-10.06-3-16.78v-10.99c0-2.06.67-2.8,2.8-2.8h6.79c2.06,0,2.8.73,2.8,2.8v41.69c0,2.06-.73,2.8-2.8,2.8h-7.53c-1.4,0-2.13-.4-2.73-1.33l-10.26-15.85c-2.93-4.6-4.06-7.73-5.86-13.65h-.53c1.4,6.26,2.2,9.72,2.2,17.18v10.86c0,2.06-.73,2.8-2.86,2.8h-6.73c-2.13,0-2.8-.73-2.8-2.8Z"/>
  </g>
</svg>