<?xml version="1.0" encoding="UTF-8"?>
<svg id="Camada_1" xmlns="http://www.w3.org/2000/svg" version="1.1" viewBox="0 0 32 274">
  <!-- Generator: Adobe Illustrator 30.1.0, SVG Export Plug-In . SVG Version: 2.1.1 Build 136)  -->
  <defs>
    <style>
      .st0 {
        fill: #fff;
      }
    </style>
  </defs>
  <path class="st0" d="M10.29,223.26c-.96,0-1.8-.2-2.52-.6-.72-.4-1.28-.96-1.68-1.68-.4-.72-.6-1.56-.6-2.52v-3.89c0-.96.2-1.8.6-2.52s.96-1.28,1.68-1.68c.72-.4,1.56-.6,2.52-.6s1.8.2,2.52.6c.72.4,1.28.96,1.68,1.68.4.72.6,1.56.6,2.52v3.89c0,.96-.2,1.8-.6,2.52-.4.72-.96,1.28-1.68,1.68-.72.4-1.56.6-2.52.6ZM10.29,220.94c.43,0,.82-.1,1.17-.31.35-.2.62-.48.83-.83.2-.35.31-.74.31-1.17v-4.27c0-.43-.1-.82-.31-1.17-.2-.35-.48-.62-.83-.83-.35-.2-.74-.31-1.17-.31s-.82.1-1.17.31c-.35.2-.62.48-.83.83-.2.35-.31.74-.31,1.17v4.27c0,.43.1.82.31,1.17.2.35.48.62.83.83.35.2.74.31,1.17.31ZM22.88,222.99v-2.02h-5.63v-2.29l4.09-8.66h2.81l-4.09,8.66h2.83v-3.24h2.48v3.24h1.15v2.29h-1.15v2.02h-2.48Z"/>
  <rect class="st0" y="0" width="2" height="234.99"/>
  <rect class="st0" y="232.99" width="27" height="2"/>
  <g>
    <path class="st0" d="M21.76,257.11c-.86-.9-2.26-1.1-3.35-.41-.82.52-1.27,1.41-1.25,2.32.16.22.31.46.43.72l4.17-2.63h0s0,0,0,0Z"/>
    <path class="st0" d="M26.85,246.69c-2.83-2.68-6.65-4.32-10.85-4.32s-8.02,1.64-10.85,4.32h21.7Z"/>
    <path class="st0" d="M5.88,252.41v10.69c0,1.06.86,1.92,1.92,1.92h16.42c1.06,0,1.92-.86,1.92-1.92v-11.75c0-1.06-.86-1.92-1.92-1.92H7.79c-1.06,0-1.92.86-1.92,1.92v.15h7.81v-1.41c0-.17.14-.32.32-.32h4.03c.17,0,.32.14.32.32v1.41h5.85c.25,0,.45.2.45.45s-.2.45-.45.45h-5.85v1.18c0,.21-.09.41-.26.54l-1.64,1.32c-.25.21-.62.21-.87,0l-1.64-1.32c-.16-.13-.26-.33-.26-.54v-1.18h-7.81,0ZM23.82,264.74h-15.76c-.29,0-.53-.24-.53-.53s.24-.53.53-.53h15.76c.29,0,.53.24.53.53s-.24.53-.53.53ZM9.16,262.41c0-.5.4-.9.9-.9h.03c.5,0,.9.4.9.9s-.4.9-.9.9h-.03c-.5,0-.9-.4-.9-.9ZM15.52,257.63c.31-1,.96-1.9,1.91-2.5,2.11-1.33,4.9-.7,6.24,1.41.3.47.49.97.6,1.48l-1.76,1.11-1.83,1.15-1.83,1.15c.77.3,1.66.25,2.41-.22l3.09-1.94c-.1,1.39-.83,2.71-2.1,3.51-1.38.87-3.04.9-4.41.23-.05.16-.1.31-.17.46h-2.61c.5-.44.81-1.07.81-1.79,0-.32-.06-.63-.18-.91,0-.01-.01-.03-.02-.04-.37-.84-1.2-1.42-2.17-1.42-1.18,0-2.15.86-2.34,1.98v.04h-2.18v-8.14h2.18v4.61c.68-.41,1.48-.65,2.34-.65.72,0,1.4.17,2,.47h0,0Z"/>
    <path class="st0" d="M29.08,249.3v17.77c1.72-2.53,2.73-5.59,2.73-8.88s-1.01-6.35-2.73-8.88h0Z"/>
    <path class="st0" d="M2.92,261.71v-12.41c-1.72,2.53-2.73,5.59-2.73,8.88s1.01,6.35,2.73,8.88v-5.36h0Z"/>
    <path class="st0" d="M15.66,251.5h1.92v-.54c0-.12-.09-.21-.21-.21h-2.68c-.12,0-.21.09-.21.21v2.33c0,.14.06.27.17.36l1.09.88c.17.14.41.14.58,0l1.09-.88c.11-.09.17-.22.17-.36v-.88h-1.92c-.25,0-.45-.2-.45-.45s.2-.45.45-.45h0s0,0,0,0Z"/>
    <path class="st0" d="M25.98,269.68c-.38,0-.69-.27-.76-.62-.03-.13-.05-.27-.1-.39l-.3-.9H7.18l-.3.9c-.04.13-.07.26-.09.39-.07.35-.39.62-.76.62h-.87c2.83,2.67,6.65,4.32,10.85,4.32s8.02-1.64,10.85-4.32h-.87Z"/>
  </g>
  <g>
    <path class="st0" d="M12.91,87.44c0,.44.09.83.28,1.18.18.35.45.64.8.88.35.24.78.43,1.28.56.5.13,1.08.19,1.72.19.87,0,1.59-.11,2.18-.33.59-.22,1.03-.55,1.33-1,.3-.45.45-1.01.45-1.69,0-.61-.08-1.21-.25-1.77-.17-.57-.37-1.14-.61-1.72h3.14c.27.61.46,1.23.58,1.87.12.64.18,1.31.18,2.03,0,1.49-.3,2.71-.89,3.66-.59.95-1.42,1.65-2.47,2.1-1.05.45-2.28.67-3.67.67-1.04,0-1.99-.15-2.86-.44s-1.62-.72-2.25-1.28c-.64-.56-1.13-1.26-1.48-2.09-.35-.83-.52-1.78-.52-2.85,0-.66.08-1.36.23-2.1.15-.74.4-1.46.74-2.16l2.92,1.14c-.24.5-.44,1.01-.6,1.52-.16.51-.24,1.06-.24,1.64Z"/>
    <path class="st0" d="M16.91,68.2c1.06,0,2.02.13,2.89.38s1.62.65,2.24,1.19c.63.54,1.11,1.23,1.44,2.08.34.85.5,1.86.5,3.04s-.17,2.15-.5,2.99c-.33.84-.81,1.54-1.44,2.08-.62.55-1.37.95-2.24,1.21-.87.26-1.84.39-2.92.39-1.43,0-2.67-.24-3.73-.71-1.06-.47-1.87-1.2-2.45-2.2-.58-.99-.87-2.26-.87-3.8s.29-2.84.87-3.82c.58-.98,1.4-1.7,2.46-2.16s2.3-.69,3.73-.69ZM16.91,77.66c.83,0,1.54-.09,2.14-.28s1.05-.49,1.37-.89c.32-.41.48-.94.48-1.6s-.16-1.23-.48-1.63c-.32-.4-.78-.7-1.37-.87s-1.31-.27-2.14-.27c-1.24,0-2.22.21-2.94.62s-1.08,1.12-1.08,2.13c0,.67.16,1.21.49,1.62s.79.71,1.39.89c.6.19,1.32.28,2.14.28Z"/>
    <path class="st0" d="M23.81,52.63v4.87l-9.69,5.02v.08c.29-.03.65-.06,1.06-.08.41-.02.83-.05,1.26-.07.43-.02.82-.03,1.16-.03h6.2v3.29h-13.75v-4.85l9.55-5v-.06c-.3.02-.65.04-1.05.06-.4.02-.8.04-1.21.05-.41.02-.77.02-1.08.02h-6.22v-3.31h13.75Z"/>
    <path class="st0" d="M23.81,43.6v3.71h-10.71v3.36h-3.04v-10.42h3.04v3.35h10.71Z"/>
    <path class="st0" d="M23.81,29.85l-2.58.68v4.47l2.58.7v4.08l-13.8-4.48v-4.96l13.8-4.54v4.06ZM18.18,31.3l-2.26.59c-.24.06-.59.15-1.05.27-.45.12-.92.24-1.41.35-.49.12-.89.21-1.2.27.31.06.7.14,1.16.24s.92.21,1.37.32c.45.11.83.21,1.13.29l2.26.59v-2.92Z"/>
    <path class="st0" d="M23.81,18.24v3.71h-10.71v3.36h-3.04v-10.42h3.04v3.35h10.71Z"/>
    <path class="st0" d="M16.91.06c1.06,0,2.02.13,2.89.38s1.62.65,2.24,1.19c.63.54,1.11,1.23,1.44,2.08.34.85.5,1.86.5,3.04s-.17,2.15-.5,2.99c-.33.84-.81,1.54-1.44,2.08-.62.55-1.37.95-2.24,1.21-.87.26-1.84.39-2.92.39-1.43,0-2.67-.24-3.73-.71-1.06-.47-1.87-1.2-2.45-2.2-.58-.99-.87-2.26-.87-3.8s.29-2.84.87-3.82c.58-.98,1.4-1.7,2.46-2.16S15.49.06,16.91.06ZM16.91,9.52c.83,0,1.54-.09,2.14-.28s1.05-.49,1.37-.89c.32-.41.48-.94.48-1.6s-.16-1.23-.48-1.63c-.32-.4-.78-.7-1.37-.87s-1.31-.27-2.14-.27c-1.24,0-2.22.21-2.94.62s-1.08,1.12-1.08,2.13c0,.67.16,1.21.49,1.62s.79.71,1.39.89c.6.19,1.32.28,2.14.28Z"/>
  </g>
</svg>