<?xml version="1.0" encoding="UTF-8"?>
<svg id="Camada_1" xmlns="http://www.w3.org/2000/svg" version="1.1" viewBox="0 0 32 274">
  <!-- Generator: Adobe Illustrator 30.1.0, SVG Export Plug-In . SVG Version: 2.1.1 Build 136)  -->
  <defs>
    <style>
      .st0 {
        fill: #fff;
      }
    </style>
  </defs>
  <rect class="st0" y="0" width="2" height="234.99"/>
  <rect class="st0" y="232.99" width="27" height="2"/>
  <g>
    <path class="st0" d="M21.76,257.11c-.86-.9-2.26-1.1-3.35-.41-.82.52-1.27,1.41-1.25,2.32.16.22.31.46.43.72l4.17-2.63h0s0,0,0,0Z"/>
    <path class="st0" d="M26.85,246.69c-2.83-2.68-6.65-4.32-10.85-4.32s-8.02,1.64-10.85,4.32h21.7Z"/>
    <path class="st0" d="M5.88,252.41v10.69c0,1.06.86,1.92,1.92,1.92h16.42c1.06,0,1.92-.86,1.92-1.92v-11.75c0-1.06-.86-1.92-1.92-1.92H7.79c-1.06,0-1.92.86-1.92,1.92v.15h7.81v-1.41c0-.17.14-.32.32-.32h4.03c.17,0,.32.14.32.32v1.41h5.85c.25,0,.45.2.45.45s-.2.45-.45.45h-5.85v1.18c0,.21-.09.41-.26.54l-1.64,1.32c-.25.21-.62.21-.87,0l-1.64-1.32c-.16-.13-.26-.33-.26-.54v-1.18h-7.81,0ZM23.82,264.74h-15.76c-.29,0-.53-.24-.53-.53s.24-.53.53-.53h15.76c.29,0,.53.24.53.53s-.24.53-.53.53ZM9.16,262.41c0-.5.4-.9.9-.9h.03c.5,0,.9.4.9.9s-.4.9-.9.9h-.03c-.5,0-.9-.4-.9-.9ZM15.52,257.63c.31-1,.96-1.9,1.91-2.5,2.11-1.33,4.9-.7,6.24,1.41.3.47.49.97.6,1.48l-1.76,1.11-1.83,1.15-1.83,1.15c.77.3,1.66.25,2.41-.22l3.09-1.94c-.1,1.39-.83,2.71-2.1,3.51-1.38.87-3.04.9-4.41.23-.05.16-.1.31-.17.46h-2.61c.5-.44.81-1.07.81-1.79,0-.32-.06-.63-.18-.91,0-.01-.01-.03-.02-.04-.37-.84-1.2-1.42-2.17-1.42-1.18,0-2.15.86-2.34,1.98v.04h-2.18v-8.14h2.18v4.61c.68-.41,1.48-.65,2.34-.65.72,0,1.4.17,2,.47h0,0Z"/>
    <path class="st0" d="M29.08,249.3v17.77c1.72-2.53,2.73-5.59,2.73-8.88s-1.01-6.35-2.73-8.88h0Z"/>
    <path class="st0" d="M2.92,261.71v-12.41c-1.72,2.53-2.73,5.59-2.73,8.88s1.01,6.35,2.73,8.88v-5.36h0Z"/>
    <path class="st0" d="M15.66,251.5h1.92v-.54c0-.12-.09-.21-.21-.21h-2.68c-.12,0-.21.09-.21.21v2.33c0,.14.06.27.17.36l1.09.88c.17.14.41.14.58,0l1.09-.88c.11-.09.17-.22.17-.36v-.88h-1.92c-.25,0-.45-.2-.45-.45s.2-.45.45-.45h0s0,0,0,0Z"/>
    <path class="st0" d="M25.98,269.68c-.38,0-.69-.27-.76-.62-.03-.13-.05-.27-.1-.39l-.3-.9H7.18l-.3.9c-.04.13-.07.26-.09.39-.07.35-.39.62-.76.62h-.87c2.83,2.67,6.65,4.32,10.85,4.32s8.02-1.64,10.85-4.32h-.87Z"/>
  </g>
  <g>
    <path class="st0" d="M10.06,103.67c0-1.74.38-3.05,1.14-3.92.76-.87,1.84-1.3,3.24-1.3.63,0,1.23.09,1.8.27.58.18,1.09.47,1.54.87s.81.94,1.07,1.61c.26.67.39,1.49.39,2.47v1.04h4.56v3.71h-13.75v-4.76ZM13.06,103.76v.96h3.16v-.73c0-.32-.05-.62-.17-.89-.11-.28-.29-.5-.54-.66-.25-.17-.58-.25-.99-.25s-.79.13-1.06.39c-.27.26-.41.66-.41,1.19Z"/>
    <path class="st0" d="M16.91,83.4c1.06,0,2.02.13,2.89.38s1.62.65,2.24,1.19c.63.54,1.11,1.23,1.44,2.08.34.85.5,1.86.5,3.04s-.17,2.15-.5,2.99c-.33.84-.81,1.54-1.44,2.08-.62.55-1.37.95-2.24,1.21-.87.26-1.84.39-2.92.39-1.43,0-2.67-.24-3.73-.71-1.06-.47-1.87-1.2-2.45-2.2-.58-.99-.87-2.26-.87-3.8s.29-2.84.87-3.82c.58-.98,1.4-1.7,2.46-2.16s2.3-.69,3.73-.69ZM16.91,92.86c.83,0,1.54-.09,2.14-.28s1.05-.49,1.37-.89c.32-.41.48-.94.48-1.6s-.16-1.23-.48-1.63c-.32-.4-.78-.7-1.37-.87s-1.31-.27-2.14-.27c-1.24,0-2.22.21-2.94.62s-1.08,1.12-1.08,2.13c0,.67.16,1.21.49,1.62s.79.71,1.39.89c.6.19,1.32.28,2.14.28Z"/>
    <path class="st0" d="M10.06,76.41c0-1.25.15-2.28.46-3.11.3-.83.76-1.45,1.36-1.87.6-.42,1.35-.63,2.25-.63.56,0,1.07.09,1.52.28.46.19.87.46,1.23.8.36.35.68.76.95,1.25l5.99-4.01v4.21l-5,2.91v.94h5v3.71h-13.75v-4.5ZM12.87,76.47v.73h3.14v-.7c0-.57-.12-1.04-.38-1.4-.25-.36-.7-.55-1.34-.55-.45,0-.79.15-1.04.45-.25.3-.38.79-.38,1.46Z"/>
    <path class="st0" d="M23.81,61.82v3.71h-10.71v3.36h-3.04v-10.42h3.04v3.35h10.71Z"/>
    <path class="st0" d="M23.81,52.85v3.66h-13.75v-8.12h2.98v4.47h2.62v-4.12h2.98v4.12h5.16Z"/>
    <path class="st0" d="M5.95,35.35h.2c.18.23.4.51.66.87.26.35.53.72.81,1.11.28.39.54.77.79,1.14.25.37.46.68.62.94v2.44h-.27c-.24-.22-.52-.48-.85-.79s-.67-.61-1.01-.92-.66-.56-.95-.77v-4.02ZM16.91,33.26c1.06,0,2.02.13,2.89.38s1.62.65,2.24,1.19c.63.54,1.11,1.23,1.44,2.08.34.85.5,1.86.5,3.04s-.17,2.15-.5,2.99c-.33.84-.81,1.54-1.44,2.08-.62.55-1.37.95-2.24,1.21-.87.26-1.84.39-2.92.39-1.43,0-2.67-.24-3.73-.71-1.06-.47-1.87-1.2-2.45-2.2-.58-.99-.87-2.26-.87-3.8s.29-2.84.87-3.82c.58-.98,1.4-1.7,2.46-2.16s2.3-.69,3.73-.69ZM16.91,42.72c.83,0,1.54-.09,2.14-.28s1.05-.49,1.37-.89c.32-.41.48-.94.48-1.6s-.16-1.23-.48-1.63c-.32-.4-.78-.7-1.37-.87s-1.31-.27-2.14-.27c-1.24,0-2.22.21-2.94.62s-1.08,1.12-1.08,2.13c0,.67.16,1.21.49,1.62s.79.71,1.39.89c.6.19,1.32.28,2.14.28Z"/>
    <path class="st0" d="M23.81,30.78h-13.75v-3.71h10.75v-5.29h3v9.01Z"/>
    <path class="st0" d="M23.81,19.57h-13.75v-3.73h13.75v3.73Z"/>
    <path class="st0" d="M16.91,0c1.06,0,2.02.13,2.89.38s1.62.65,2.24,1.19c.63.54,1.11,1.23,1.44,2.08.34.85.5,1.86.5,3.04s-.17,2.15-.5,2.99c-.33.84-.81,1.54-1.44,2.08-.62.55-1.37.95-2.24,1.21-.87.26-1.84.39-2.92.39-1.43,0-2.67-.24-3.73-.71-1.06-.47-1.87-1.2-2.45-2.2-.58-.99-.87-2.26-.87-3.8s.29-2.84.87-3.82c.58-.98,1.4-1.7,2.46-2.16S15.49,0,16.91,0ZM16.91,9.47c.83,0,1.54-.09,2.14-.28s1.05-.49,1.37-.89c.32-.41.48-.94.48-1.6s-.16-1.23-.48-1.63c-.32-.4-.78-.7-1.37-.87s-1.31-.27-2.14-.27c-1.24,0-2.22.21-2.94.62s-1.08,1.12-1.08,2.13c0,.67.16,1.21.49,1.62s.79.71,1.39.89c.6.19,1.32.28,2.14.28Z"/>
  </g>
  <path class="st0" d="M10.39,223.26c-.95,0-1.79-.2-2.52-.59-.72-.41-1.28-.97-1.69-1.69-.4-.73-.59-1.57-.59-2.52v-3.89c0-.95.2-1.78.59-2.5.41-.73.97-1.3,1.69-1.69.73-.41,1.57-.61,2.52-.61s1.78.2,2.5.61c.73.4,1.3.96,1.69,1.69.41.72.61,1.55.61,2.5v3.89c0,.95-.2,1.79-.61,2.52-.4.72-.96,1.28-1.69,1.69-.72.4-1.55.59-2.5.59ZM10.39,220.94c.65,0,1.19-.22,1.64-.67.44-.44.67-.99.67-1.64v-4.27c0-.65-.22-1.19-.67-1.64-.44-.44-.99-.67-1.64-.67s-1.19.22-1.64.67-.67.99-.67,1.64v4.27c0,.65.22,1.19.67,1.64s.99.67,1.64.67ZM21.15,220.67h5.27v2.3h-9.07v-2.12l5.44-4.82c.74-.66,1.12-1.3,1.12-1.91s-.18-1.09-.54-1.48c-.36-.38-.83-.58-1.42-.58s-1.12.2-1.51.61c-.4.4-.58.87-.56,1.42h-2.52c0-.88.19-1.64.58-2.29.4-.66.94-1.16,1.64-1.51.7-.36,1.51-.54,2.43-.54.84,0,1.6.19,2.27.56.67.37,1.2.89,1.58,1.57.38.66.58,1.42.58,2.27,0,.61-.09,1.13-.27,1.55-.17.42-.4.79-.7,1.12-.29.31-.76.75-1.4,1.31l-2.9,2.54Z"/>
</svg>