<?xml version="1.0" encoding="UTF-8"?>
<svg id="Camada_1" xmlns="http://www.w3.org/2000/svg" version="1.1" viewBox="0 0 32 274">
  <!-- Generator: Adobe Illustrator 30.1.0, SVG Export Plug-In . SVG Version: 2.1.1 Build 136)  -->
  <defs>
    <style>
      .st0 {
        fill: #63c0de;
      }

      .st1 {
        fill: #333;
      }

      .st2 {
        fill: #056fb6;
      }
    </style>
  </defs>
  <path class="st1" d="M10.59,223.26c-.95,0-1.79-.2-2.52-.59-.72-.41-1.28-.97-1.69-1.69-.4-.73-.59-1.57-.59-2.52v-3.89c0-.95.2-1.78.59-2.5.41-.73.97-1.3,1.69-1.69.73-.41,1.57-.61,2.52-.61s1.78.2,2.5.61c.73.4,1.3.96,1.69,1.69.41.72.61,1.55.61,2.5v3.89c0,.95-.2,1.79-.61,2.52-.4.72-.96,1.28-1.69,1.69-.72.4-1.55.59-2.5.59ZM10.59,220.94c.65,0,1.19-.22,1.64-.67s.67-.99.67-1.64v-4.27c0-.65-.22-1.19-.67-1.64s-.99-.67-1.64-.67-1.19.22-1.64.67c-.44.44-.67.99-.67,1.64v4.27c0,.65.22,1.19.67,1.64.44.44.99.67,1.64.67ZM23.35,214.87c.9.28,1.6.79,2.11,1.53.5.73.76,1.57.76,2.5,0,.8-.2,1.54-.61,2.2-.41.66-.96,1.18-1.66,1.57-.7.37-1.45.56-2.25.56-.98,0-1.88-.29-2.7-.86-.8-.59-1.34-1.36-1.62-2.3l2.38-.63c.12.47.36.83.72,1.1.37.26.78.4,1.22.4.56,0,1.04-.2,1.44-.59s.59-.87.59-1.42-.19-1.04-.58-1.44c-.38-.4-.87-.59-1.46-.59-.35,0-.68.1-1.01.29l-1.1-1.93,3.49-2.9h-5.2v-2.3h8.1v2.3l-2.63,2.54Z"/>
  <rect class="st1" y="0" width="2" height="234.99"/>
  <rect class="st1" y="232.99" width="27" height="2"/>
  <g>
    <path class="st2" d="M21.76,257.11c-.86-.9-2.26-1.1-3.35-.41-.82.52-1.27,1.41-1.25,2.32.16.22.31.46.43.72l4.17-2.63h0s0,0,0,0Z"/>
    <path class="st0" d="M26.85,246.69c-2.83-2.68-6.65-4.32-10.85-4.32s-8.02,1.64-10.85,4.32h21.7Z"/>
    <path class="st2" d="M5.88,252.41v10.69c0,1.06.86,1.92,1.92,1.92h16.42c1.06,0,1.92-.86,1.92-1.92v-11.75c0-1.06-.86-1.92-1.92-1.92H7.79c-1.06,0-1.92.86-1.92,1.92v.15h7.81v-1.41c0-.17.14-.32.32-.32h4.03c.17,0,.32.14.32.32v1.41h5.85c.25,0,.45.2.45.45s-.2.45-.45.45h-5.85v1.18c0,.21-.09.41-.26.54l-1.64,1.32c-.25.21-.62.21-.87,0l-1.64-1.32c-.16-.13-.26-.33-.26-.54v-1.18h-7.81,0ZM23.82,264.74h-15.76c-.29,0-.53-.24-.53-.53s.24-.53.53-.53h15.76c.29,0,.53.24.53.53s-.24.53-.53.53ZM9.16,262.41c0-.5.4-.9.9-.9h.03c.5,0,.9.4.9.9s-.4.9-.9.9h-.03c-.5,0-.9-.4-.9-.9ZM15.52,257.63c.31-1,.96-1.9,1.91-2.5,2.11-1.33,4.9-.7,6.24,1.41.3.47.49.97.6,1.48l-1.76,1.11-1.83,1.15-1.83,1.15c.77.3,1.66.25,2.41-.22l3.09-1.94c-.1,1.39-.83,2.71-2.1,3.51-1.38.87-3.04.9-4.41.23-.05.16-.1.31-.17.46h-2.61c.5-.44.81-1.07.81-1.79,0-.32-.06-.63-.18-.91,0-.01-.01-.03-.02-.04-.37-.84-1.2-1.42-2.17-1.42-1.18,0-2.15.86-2.34,1.98v.04h-2.18v-8.14h2.18v4.61c.68-.41,1.48-.65,2.34-.65.72,0,1.4.17,2,.47h0,0Z"/>
    <path class="st0" d="M29.08,249.3v17.77c1.72-2.53,2.73-5.59,2.73-8.88s-1.01-6.35-2.73-8.88h0Z"/>
    <path class="st0" d="M2.92,261.71v-12.41c-1.72,2.53-2.73,5.59-2.73,8.88s1.01,6.35,2.73,8.88v-5.36h0Z"/>
    <path class="st2" d="M15.66,251.5h1.92v-.54c0-.12-.09-.21-.21-.21h-2.68c-.12,0-.21.09-.21.21v2.33c0,.14.06.27.17.36l1.09.88c.17.14.41.14.58,0l1.09-.88c.11-.09.17-.22.17-.36v-.88h-1.92c-.25,0-.45-.2-.45-.45s.2-.45.45-.45h0s0,0,0,0Z"/>
    <path class="st0" d="M25.98,269.68c-.38,0-.69-.27-.76-.62-.03-.13-.05-.27-.1-.39l-.3-.9H7.18l-.3.9c-.04.13-.07.26-.09.39-.07.35-.39.62-.76.62h-.87c2.83,2.67,6.65,4.32,10.85,4.32s8.02-1.64,10.85-4.32h-.87Z"/>
  </g>
  <g>
    <path class="st1" d="M12.91,104.89c0,.44.09.83.28,1.18.18.35.45.64.8.88.35.24.78.43,1.28.56.5.13,1.08.19,1.72.19.87,0,1.59-.11,2.18-.33.59-.22,1.03-.55,1.33-1,.3-.45.45-1.01.45-1.69,0-.61-.08-1.21-.25-1.77-.17-.57-.37-1.14-.61-1.72h3.14c.27.61.46,1.23.58,1.87.12.64.18,1.31.18,2.03,0,1.49-.3,2.71-.89,3.66-.59.95-1.42,1.65-2.47,2.1-1.05.45-2.28.67-3.67.67-1.04,0-1.99-.15-2.86-.44s-1.62-.72-2.25-1.28c-.64-.56-1.13-1.26-1.48-2.09-.35-.83-.52-1.78-.52-2.85,0-.66.08-1.36.23-2.1.15-.74.4-1.46.74-2.16l2.92,1.14c-.24.5-.44,1.01-.6,1.52-.16.51-.24,1.06-.24,1.64Z"/>
    <path class="st1" d="M10.06,86.83h8.27c1.15,0,2.16.22,3,.66.85.44,1.5,1.1,1.96,1.97.46.88.69,1.98.69,3.3,0,1.89-.49,3.34-1.46,4.33-.97,1-2.34,1.49-4.12,1.49h-8.36v-3.73h8.07c.97,0,1.68-.18,2.12-.55.44-.36.66-.9.66-1.61,0-.51-.1-.92-.29-1.24s-.49-.55-.91-.7c-.41-.15-.95-.22-1.6-.22h-8.05v-3.71Z"/>
    <path class="st1" d="M10.06,79.43c0-1.25.15-2.28.46-3.11.3-.83.76-1.45,1.36-1.87.6-.42,1.35-.63,2.25-.63.56,0,1.07.09,1.52.28.46.19.87.46,1.23.8.36.35.68.76.95,1.25l5.99-4.01v4.21l-5,2.91v.94h5v3.71h-13.75v-4.5ZM12.87,79.49v.73h3.14v-.7c0-.57-.12-1.04-.38-1.4-.25-.36-.7-.55-1.34-.55-.45,0-.79.15-1.04.45-.25.3-.38.79-.38,1.46Z"/>
    <path class="st1" d="M10.06,66.4c0-1.25.15-2.28.46-3.11.3-.83.76-1.45,1.36-1.87.6-.42,1.35-.63,2.25-.63.56,0,1.07.09,1.52.28.46.19.87.46,1.23.8.36.35.68.76.95,1.25l5.99-4.01v4.21l-5,2.91v.94h5v3.71h-13.75v-4.5ZM12.87,66.46v.73h3.14v-.7c0-.57-.12-1.04-.38-1.4-.25-.36-.7-.55-1.34-.55-.45,0-.79.15-1.04.45-.25.3-.38.79-.38,1.46Z"/>
    <path class="st1" d="M5.95,51.41h.2c.18.23.4.51.66.87.26.35.53.72.81,1.11.28.39.54.77.79,1.14.25.37.46.68.62.94v2.44h-.27c-.24-.22-.52-.48-.85-.79s-.67-.61-1.01-.92-.66-.56-.95-.77v-4.02ZM23.81,57.87h-13.75v-3.73h13.75v3.73Z"/>
    <path class="st1" d="M12.91,45.05c0,.44.09.83.28,1.18.18.35.45.64.8.88.35.24.78.43,1.28.56.5.13,1.08.19,1.72.19.87,0,1.59-.11,2.18-.33.59-.22,1.03-.55,1.33-1,.3-.45.45-1.01.45-1.69,0-.61-.08-1.21-.25-1.77-.17-.57-.37-1.14-.61-1.72h3.14c.27.61.46,1.23.58,1.87.12.64.18,1.31.18,2.03,0,1.49-.3,2.71-.89,3.66-.59.95-1.42,1.65-2.47,2.1-1.05.45-2.28.67-3.67.67-1.04,0-1.99-.15-2.86-.44s-1.62-.72-2.25-1.28c-.64-.56-1.13-1.26-1.48-2.09-.35-.83-.52-1.78-.52-2.85,0-.66.08-1.36.23-2.1.15-.74.4-1.46.74-2.16l2.92,1.14c-.24.5-.44,1.01-.6,1.52-.16.51-.24,1.06-.24,1.64Z"/>
    <path class="st1" d="M10.06,26.99h8.27c1.15,0,2.16.22,3,.66.85.44,1.5,1.1,1.96,1.97.46.88.69,1.98.69,3.3,0,1.89-.49,3.34-1.46,4.33-.97,1-2.34,1.49-4.12,1.49h-8.36v-3.73h8.07c.97,0,1.68-.18,2.12-.55.44-.36.66-.9.66-1.61,0-.51-.1-.92-.29-1.24s-.49-.55-.91-.7c-.41-.15-.95-.22-1.6-.22h-8.05v-3.71Z"/>
    <path class="st1" d="M23.81,24.1h-13.75v-3.71h10.75v-5.29h3v9.01Z"/>
    <path class="st1" d="M16.91.03c1.06,0,2.02.13,2.89.38s1.62.65,2.24,1.19c.63.54,1.11,1.23,1.44,2.08.34.85.5,1.86.5,3.04s-.17,2.15-.5,2.99c-.33.84-.81,1.54-1.44,2.08-.62.55-1.37.95-2.24,1.21-.87.26-1.84.39-2.92.39-1.43,0-2.67-.24-3.73-.71-1.06-.47-1.87-1.2-2.45-2.2-.58-.99-.87-2.26-.87-3.8s.29-2.84.87-3.82c.58-.98,1.4-1.7,2.46-2.16S15.49.03,16.91.03ZM16.91,9.49c.83,0,1.54-.09,2.14-.28s1.05-.49,1.37-.89c.32-.41.48-.94.48-1.6s-.16-1.23-.48-1.63c-.32-.4-.78-.7-1.37-.87s-1.31-.27-2.14-.27c-1.24,0-2.22.21-2.94.62s-1.08,1.12-1.08,2.13c0,.67.16,1.21.49,1.62s.79.71,1.39.89c.6.19,1.32.28,2.14.28Z"/>
  </g>
</svg>